<svg id="Layer_1" data-name="Layer 1" xmlns="http://www.w3.org/2000/svg" viewBox="0 0 80 80"><defs><style>.cls-1{fill:red;}.cls-2{fill:none;}.cls-3{font-size:12.47px;fill:#fff;font-family:Silverstone-Sans-Round, Silverstone Sans Round;}.cls-4{letter-spacing:-0.01em;}.cls-5{letter-spacing:0em;}.cls-6{letter-spacing:-0.01em;}.cls-7{letter-spacing:0em;}.cls-8{opacity:0.2;}</style></defs><title>logo</title><path class="cls-1 test" d="M60.89,50.88c-1.19.68-2.5,1.15-4.07,1.86a18.3,18.3,0,0,0,8-.69,25.65,25.65,0,0,1-2.6,5,15.88,15.88,0,0,1-10.42.42c2.75.92,5.61,1.45,8.41,2.18a26,26,0,0,1-3.11,3A17.69,17.69,0,0,1,48.45,61a1.81,1.81,0,0,0-1.84.06,13.36,13.36,0,0,1-12.46,0,1.83,1.83,0,0,0-1.9-.07,17.67,17.67,0,0,1-7.61,1.59,26.62,26.62,0,0,1-3.36-3.27c.73-.16,1.47-.3,2.19-.47A9.39,9.39,0,0,0,25,58.16c-1.25-.09-2.14-.1-3-.22a14,14,0,0,1-2.18-.46A25,25,0,0,1,17,52.4a19.46,19.46,0,0,0,5.4.48l1.47-.12c-.67-.31-1-.49-1.3-.61a17.25,17.25,0,0,1-7-4.56,26.15,26.15,0,0,1-.47-5V42c0-.59.05-1.18.11-1.76a25.76,25.76,0,0,1,51.37,1.18c0,.41,0,.81,0,1.22a25.43,25.43,0,0,1-.23,3.4A15.19,15.19,0,0,1,60.89,50.88Z"/><path d="M51.32,22.8c0-.14-.07-.23-.11-.33a.39.39,0,0,0-.43-.27,3.53,3.53,0,0,1-.65-.11S50.06,22,50,22s.08-.08.13-.08a1.34,1.34,0,0,1,.49,0,18.9,18.9,0,0,1,9.22,5.78,14.38,14.38,0,0,1,2.36,3.47,5.74,5.74,0,0,1,.59,2.06,7.45,7.45,0,0,1-.08.94c0,.15,0,.31-.05.46l.06,0,.32-.26a3.41,3.41,0,0,1,.21.61,16.41,16.41,0,0,1,.16,1.72c0,1.25,0,2.5,0,3.75a5.46,5.46,0,0,1-.1,1.07c-.22,1.06-.43,2.13-.73,3.17a8.4,8.4,0,0,1-.76,1.57c0,.08-.16.13-.28.22a2.35,2.35,0,0,1-.11-.44c-.11-.93-.21-1.86-.29-2.79a9.2,9.2,0,0,1,0-1.05A3.78,3.78,0,0,0,60.75,40a3.65,3.65,0,0,1-.54-1.38.64.64,0,0,0-1.09-.42,4.6,4.6,0,0,0-.62.55,1,1,0,0,1-1.21.18,4.2,4.2,0,0,1-2-2,1.72,1.72,0,0,0-.2-.38,1.65,1.65,0,0,1-.35-1.19A7.36,7.36,0,0,0,54.56,33a4.62,4.62,0,0,1,0-1.12c0-.37-.07-.43-.41-.31a.31.31,0,0,1-.41-.14c-.22-.32-.46-.62-.7-.92s-.19-.46.17-.63c.2-.09.4-.21.6-.31a1.53,1.53,0,0,0-1.36-.77l.4-.7a.64.64,0,0,0,0-.2.65.65,0,0,0-.21.06l-.51.45-.59-.64c0,.41-.07.5-.49.66-.25-.3-.53-.59-.4-1.06,0,0,0-.13-.1-.17l-.46-.33.28-.49,2.39,1.23c0-.29.08-.56.1-.83a.21.21,0,0,0-.08-.19,1.29,1.29,0,0,1-.58-.66c-.08-.15-.18-.19-.32-.12a1,1,0,0,1-1.09-.24.88.88,0,0,1-.27-.51,1.4,1.4,0,0,0-.94-1.29.67.67,0,0,1-.18-1,.56.56,0,0,1,.39-.09Zm3.34,8.76a1.13,1.13,0,0,0,.91-.46,7.18,7.18,0,0,1,.6-.63c.39-.31.56-.25.8.18.07.12.17.26.29.29.34.09.7.14,1.06.21V31c0-.42.06-.48.48-.46a3.63,3.63,0,0,0,.65-.05.3.3,0,0,0,.21-.15c0-.05,0-.16-.09-.22s-.35-.37-.52-.57a.34.34,0,0,0-.38-.13.78.78,0,0,1-.48-.13c-.13-.08-.21-.24-.34-.33a4.83,4.83,0,0,0-.45-.26l0,.07.71.89c-.12.16-.13.17-.27.08l-.81-.5.15.83c-.47,0-.47,0-.46-.42,0-.06,0-.18-.06-.19l-1.07-.38,0,.08.63.69a.36.36,0,0,1-.49-.16c-.16-.24-.3-.48-.45-.72-.48.3-.53.42-.4.93l.09.34A1.26,1.26,0,0,1,54.66,31.56Zm2.27-4.24,0,.06.6.76a.17.17,0,0,0,.15,0l.74-.39C58,27.15,57.4,27.48,56.93,27.32Zm-3-1.45-.83-.47.1,1Zm-.87-1.26-.52.36a2.43,2.43,0,0,0,.2.36.4.4,0,0,0,.24.1s.11-.11.11-.18S53.11,24.86,53.1,24.61Z"/><path d="M37.35,29.09l.42-.73-.05,0-.63.34c-.16.09-.32.17-.47.27s-.16.24,0,.32.42.16.68.25c-.06.08-.11.19-.2.24-.29.17-.6.33-1,.52l.17-.42a.7.7,0,0,0-.68.39,1.07,1.07,0,0,1-.72.64.43.43,0,0,0-.31.38,1.88,1.88,0,0,1-.73,1.26.88.88,0,0,0-.37,1.17.85.85,0,0,1,.06.31c0,.13-.05.26-.07.4h-.09c-.11-.18-.23-.36-.33-.54a1,1,0,0,0-1.18-.62l0,.33-.38-.11a.66.66,0,0,0-.81.25,2.09,2.09,0,0,0,0,1.81.46.46,0,0,0,.81.07.88.88,0,0,0,.12-.15c.22-.3.36-.33.74-.14l-.28,1,.45,0c.36,0,.5.17.49.53a.72.72,0,0,0,.69.83,3.1,3.1,0,0,1,.47.14,1,1,0,0,1,.82-.68.81.81,0,0,1,.27,0,4.26,4.26,0,0,1,2.43,1.16.32.32,0,0,0,.23.09.84.84,0,0,1,.79.42l.35.6a.47.47,0,0,0,.4.25,1.6,1.6,0,0,1,.63.2c.41.21.79.46,1.2.71a2.79,2.79,0,0,1-.39,1A8,8,0,0,0,40,43.22a1.07,1.07,0,0,1-.47.47,2.45,2.45,0,0,0-.91.75,12.54,12.54,0,0,1-.84,1,.49.49,0,0,1-.19.16.73.73,0,0,0-.32.37.46.46,0,0,1-.27.22.74.74,0,0,0-.6.49.48.48,0,0,1-.13.16,1.33,1.33,0,0,0-.33.67.73.73,0,0,1-.05.2c-.16.46-.16.46.2.76a.32.32,0,0,1-.48.13,1.14,1.14,0,0,1-.65-1,8.72,8.72,0,0,1,.29-2.92,4.32,4.32,0,0,0,.11-1.6.54.54,0,0,0-.2-.36,2.42,2.42,0,0,1-.86-1,2.71,2.71,0,0,0-.52-.7,1,1,0,0,1-.17-1.1c.16-.4.25-.83.38-1.24a.57.57,0,0,0-.22-.68s0,0,0,0a.36.36,0,0,1-.51.07,2.32,2.32,0,0,1-.6-.44,3.78,3.78,0,0,0-.83-.59c-.75-.4-1.53-.77-2.29-1.16a.82.82,0,0,1-.37-.45c-.36-.7-.73-1.38-1.1-2.07l-.06,0,.5,1.4-.1,0a1.41,1.41,0,0,1-.29-.31c-.22-.46-.41-.93-.63-1.39a6.45,6.45,0,0,0-.49-.94,2.63,2.63,0,0,1-.36-2.26c0-.12.05-.24.08-.37a1.53,1.53,0,0,0-.14-1.08l.36.21,0,0c-.07-.16-.13-.32-.21-.47s-.34-.56-.49-.85-.25-.51-.37-.78-.17-.33-.37-.34a.59.59,0,0,0-.54.4,3.07,3.07,0,0,1-.22.38l-.16-.25-.32.2a1.23,1.23,0,0,0,0-.46,1.48,1.48,0,0,0-.32-.37.64.64,0,0,1,.1-.13l.75-.73a.28.28,0,0,0,.09-.35c-.07-.15,0-.25.1-.36.34-.3.65-.62,1-.91a.73.73,0,0,1,1-.09,1.57,1.57,0,0,0,1.49,0,.42.42,0,0,1,.29,0c.34.1.67.22,1,.33,0-.45-.34-.59-.69-.76.18-.2.33-.39.49-.56a.36.36,0,0,1,.42-.07,3.87,3.87,0,0,1,.43.27.46.46,0,0,0,.57.06c.16-.08.34-.14.54-.22a3.69,3.69,0,0,0-.18.53c0,.21.1.34.28.44l-.5.4c.2.13.35.13.5-.07s.33-.38.52-.59L32,23.28c-.26-.06-.32-.15-.27-.35a.38.38,0,0,1,.49-.27.4.4,0,0,0,.48-.1l-.35-.12c-.38-.1-.47-.28-.34-.64.08.08.17.22.25.22a2.14,2.14,0,0,0,.54-.18v-.05l-.41-.15c-.15,0-.2-.12-.11-.27.43,0,.55,0,1.07.47,0-.11-.07-.23-.12-.35-.14-.29-.1-.44.2-.55a4.72,4.72,0,0,1,2.28-.46,3.78,3.78,0,0,1,.79.19.85.85,0,0,0,1.07-.17.27.27,0,0,1,.19-.07c.42,0,.85,0,1.27.05a.8.8,0,0,1,.39.14.66.66,0,0,0,.49.1c.37,0,.45,0,.45.4a1.05,1.05,0,0,0,.29.67,10.49,10.49,0,0,1,.6.88,4.27,4.27,0,0,1,.31.77c.08.21,0,.36-.21.47s-.58.39-.88.57a1.06,1.06,0,0,0-.53.91c0,.26,0,.51-.07.8a1.51,1.51,0,0,1-.4-.07,2.3,2.3,0,0,1-1.49-1.5c-.12-.38-.1-.43.15-.74-.31,0-.45-.17-.57-.41a10.93,10.93,0,0,0-.6-1,.65.65,0,0,0-.32-.2.52.52,0,0,0-.25,0,1.08,1.08,0,0,1-1.1-.63l.71-.31,0-.06a.47.47,0,0,0-.44.08c-.3.27-.62.54-.92.82a1.11,1.11,0,0,0-.17.3.34.34,0,0,1-.35.21c-.1,0-.2,0-.3,0a1.32,1.32,0,0,0-1,.36.23.23,0,0,0-.08.36c.18.25.35.51.52.77.25-.15.27-.23.13-.4s-.07-.05-.09-.09-.23-.32-.2-.44a.59.59,0,0,1,.51-.45,4.39,4.39,0,0,1,.81,0,1.14,1.14,0,0,1,.47.16c.32.19.63.4.95.6.11.07.19.15.14.31s.06.24.2.3.32.13.47.21.22.17.11.36-.13.2-.19.32l-.43-.33-.06.05a1.43,1.43,0,0,0,.19.24c.23.19.28.33.18.52a.53.53,0,0,1-.62.18,1.83,1.83,0,0,1-.3-.18,1.45,1.45,0,0,0-.74-.32,2.17,2.17,0,0,1-.42-.15l.71-.55c.12-.1.12-.1,0-.27l-.44.24c0-.14,0-.26.05-.37s-.1-.24-.25-.3a.21.21,0,0,0-.3.11c-.17.33-.37.64-.56,1l.48.43c-.11.09-.2.14-.31,0s-.2-.07-.28,0-.2.11-.34,0a.54.54,0,0,0-.8.17,5.48,5.48,0,0,0-.35.49c-.23.35-.18.55.22.81a3.27,3.27,0,0,0,.67.28l.49.18a.34.34,0,0,1,.25.4,2.05,2.05,0,0,0,.1.54c.29-.07.33-.13.27-.37s-.06-.41.24-.57a.33.33,0,0,0,.15-.36c0-.35-.05-.7-.06-1a.28.28,0,0,1,.39-.3,5.83,5.83,0,0,1,.81.25c.18.06.18.23.2.39s0,.24.08.24a.63.63,0,0,0,.39-.05,1.72,1.72,0,0,0,.29-.39,4.48,4.48,0,0,0,.32.56,5.61,5.61,0,0,0,.66.8,2.29,2.29,0,0,1,.59.84,7.26,7.26,0,0,0,.47.8,2.48,2.48,0,0,1,.13.35c-.14,0-.29.11-.41.08A6.57,6.57,0,0,1,37.35,29.09Z"/><path d="M45.7,38.58c-.54.69-1,1.47-2.06,1.1a2,2,0,0,1-1.28-1.9C44.26,37.51,44.84,37.64,45.7,38.58Z"/><path d="M44.44,29.76l.42-.29c1-.59,1.24-.52,2,.36A7.57,7.57,0,0,0,48.05,31c.55.43.22.79,0,1.25Z"/><polygon points="32.78 54.61 30.98 55.51 32.78 55.21 32.78 54.61"/><path class="cls-2" d="M35.29,57.64h0"/><path d="M75.2,19.72a2.53,2.53,0,0,0-.77.12,5.17,5.17,0,0,0-10.3.71H64a2.8,2.8,0,1,0,1.79,4.95,2.79,2.79,0,0,0,4.43,1,2.73,2.73,0,0,0,1.86.72,2.81,2.81,0,0,0,2.65-1.91,2.28,2.28,0,0,0,.45,0,2.8,2.8,0,1,0,0-5.59Z"/><path d="M36.32,6.3a3.62,3.62,0,0,0-.94.13,6.31,6.31,0,0,0-12.55.88H22.7a3.4,3.4,0,1,0,2.18,6,3.39,3.39,0,0,0,5.39,1.17,3.39,3.39,0,0,0,5.49-1.44,3.53,3.53,0,0,0,.56,0,3.41,3.41,0,1,0,0-6.81Z"/><path d="M11,27.13a2.53,2.53,0,0,0-.55.09,3.69,3.69,0,0,0-7.35.57H3a2,2,0,0,0,0,4,2.06,2.06,0,0,0,1.28-.48A2,2,0,0,0,7.49,32a2.05,2.05,0,0,0,1.34.5,2,2,0,0,0,1.88-1.38,1.76,1.76,0,0,0,.33,0,2,2,0,0,0,0-4Z"/><path d="M67.74,52.83a6.08,6.08,0,0,1-1.33,1.58,15.11,15.11,0,0,1-14.59,3c2.75.92,5.61,1.45,8.41,2.18l.69.19a28.91,28.91,0,0,1,3,.81,10.07,10.07,0,0,1-2.76,1.3,21.28,21.28,0,0,1-4,.71A17.69,17.69,0,0,1,48.45,61a1.81,1.81,0,0,0-1.84.06,13.36,13.36,0,0,1-12.46,0,1.83,1.83,0,0,0-1.9-.07,17.67,17.67,0,0,1-7.61,1.59,22.13,22.13,0,0,1-5-.66,1.72,1.72,0,0,1-.7-.25c-.34-.31-5.05-1.08-5.35-1.43.41-.3,5.2-.36,5.65-.48.67-.18,1.34-.32,2-.45s1.47-.3,2.19-.47A9.39,9.39,0,0,0,25,58.16c-1.25-.09-2.14-.1-3-.22a14,14,0,0,1-2.18-.46,15.64,15.64,0,0,1-6-3.52l-.34-.32a1,1,0,0,1-.22-.37c-.1-.39-.47-2-.67-3a.33.33,0,0,1,.56-.3,14,14,0,0,0,1.43,1.54A13.35,13.35,0,0,0,17,52.4a19.46,19.46,0,0,0,5.4.48l1.47-.12c-.67-.31-1-.49-1.3-.61a17.25,17.25,0,0,1-7-4.56A15.31,15.31,0,0,1,14.34,46a8.34,8.34,0,0,1-1.26-3.14c-.23-1.31.67-1.69,1.92-1l.11.08.21.16c5.07,4.32,11.18,6,17.59,7.07A32.41,32.41,0,0,1,38,50.44c.58.2.94,1.06,1.41,1.61a5.79,5.79,0,0,1-1.75,1c-1.51.25-3.1.12-4.6.43-2.42.49-3.73,2.16-3.49,3.77a16.63,16.63,0,0,1,3.29.38,11.6,11.6,0,0,0,4.72.66l.6.07c7.26,1.8,11-5.31,11.08-5.55a11.59,11.59,0,0,1-9,5.48c4.42-.71,7-4.73,7.14-4.9a11.68,11.68,0,0,1-6.71,4.3,11.92,11.92,0,0,0,5.67-4.92,12.17,12.17,0,0,1-4.17,3.74A13.11,13.11,0,0,0,43.8,55.1c1-1,1.92-2,2.91-3a15.33,15.33,0,0,1,7-4.09,29.21,29.21,0,0,0,11.45-5.65,10.43,10.43,0,0,1,1.4-.94,6.22,6.22,0,0,1,1.23-.58,10.71,10.71,0,0,1-.4,3.13,10.25,10.25,0,0,1-1,2.07,15.19,15.19,0,0,1-5.5,4.85c-1.19.68-2.5,1.15-4.07,1.86a18.3,18.3,0,0,0,8-.69l.44-.17a5.93,5.93,0,0,1,1.25-.47c.36-.06,1.73-1.21,1.89-1S67.91,52.52,67.74,52.83Z"/><text class="cls-3" transform="translate(13.44 77.57)">I<tspan class="cls-4" x="3.49" y="0">T</tspan><tspan class="cls-5" x="11.87" y="0">SM</tspan><tspan class="cls-6" x="29.69" y="0">U</tspan><tspan class="cls-7" x="38.29" y="0">QS </tspan></text><polyline points="59.13 15.41 60.6 16.87 62.7 14.78 60.6 16.04"/><polyline points="61.53 16.94 62.39 17.81 63.62 16.57 62.39 17.31"/><polyline points="57.93 17.14 58.55 17.75 59.43 16.87 58.55 17.4"/><polyline points="7.92 18.4 9.38 19.87 11.48 17.77 9.38 19.03"/><polyline points="10.31 19.94 11.18 20.8 12.41 19.57 11.18 20.31"/><polyline points="6.72 20.13 7.34 20.75 8.22 19.87 7.34 20.4"/><ellipse class="cls-8" cx="41.46" cy="68.09" rx="21.26" ry="0.9"/></svg>